<svg width="83" height="64" viewBox="0 0 83 64" fill="none" xmlns="http://www.w3.org/2000/svg">
<circle cx="10" cy="49" r="9.5" fill="#6F764D" fill-opacity="0.53" stroke="white"/>
<path d="M82.0252 19.5488C82.0355 19.8247 81.8202 20.0568 81.5442 20.0671L77.0473 20.2348C76.7714 20.2451 76.5393 20.0298 76.529 19.7538C76.5187 19.4779 76.7341 19.2458 77.0101 19.2355L81.0073 19.0864L80.8582 15.0892C80.8479 14.8133 81.0632 14.5812 81.3392 14.5709C81.6151 14.5606 81.8472 14.776 81.8575 15.0519L82.0252 19.5488ZM81.1854 19.9339C80.9414 19.7074 80.6959 19.4849 80.4491 19.2664L81.1119 18.5176C81.3647 18.7414 81.616 18.9692 81.8657 19.2009L81.1854 19.9339ZM78.9371 17.9942C78.418 17.5799 77.8929 17.1836 77.3616 16.8063L77.9406 15.9909C78.4878 16.3796 79.0278 16.7871 79.561 17.2126L78.9371 17.9942ZM75.7213 15.7148C75.1601 15.3661 74.592 15.0385 74.0167 14.7326L74.4862 13.8497C75.0819 14.1664 75.6694 14.5053 76.249 14.8653L75.7213 15.7148ZM72.2503 13.8729C71.6502 13.6075 71.0423 13.3656 70.4266 13.1481L70.7596 12.2052C71.4001 12.4315 72.0317 12.6829 72.6547 12.9583L72.2503 13.8729ZM68.5527 12.569C67.9231 12.4019 67.2852 12.2599 66.6386 12.1439L66.8152 11.1596C67.4889 11.2805 68.1536 11.4285 68.8093 11.6025L68.5527 12.569ZM64.6972 11.8772C64.0535 11.8155 63.4012 11.779 62.74 11.7688L62.7554 10.769C63.4432 10.7796 64.1223 10.8175 64.7927 10.8818L64.6972 11.8772ZM60.7785 11.8148C60.1352 11.8545 59.4835 11.9186 58.8232 12.0079L58.6892 11.0169C59.3731 10.9244 60.049 10.858 60.7169 10.8167L60.7785 11.8148ZM56.8827 12.3384C56.2507 12.4679 55.611 12.6201 54.9633 12.7956L54.7018 11.8304C55.3691 11.6496 56.0291 11.4926 56.6819 11.3588L56.8827 12.3384ZM53.0758 13.3662C52.4654 13.5695 51.8482 13.7931 51.2239 14.0376L50.8592 13.1065C51.4991 12.8559 52.1325 12.6264 52.7597 12.4174L53.0758 13.3662ZM49.4043 14.801C48.814 15.0648 48.2176 15.3468 47.615 15.6476L47.1684 14.7529C47.7833 14.446 48.3926 14.1578 48.9962 13.888L49.4043 14.801ZM45.8533 16.5709C45.284 16.8833 44.7094 17.212 44.1292 17.5574L43.6176 16.6982C44.2076 16.3469 44.7924 16.0124 45.3723 15.6942L45.8533 16.5709ZM42.4491 18.595C41.9004 18.9458 41.3469 19.3114 40.7885 19.6918L40.2254 18.8654C40.7916 18.4796 41.3532 18.1087 41.9104 17.7525L42.4491 18.595ZM39.1525 20.8396C38.6278 21.2182 38.0989 21.6097 37.5658 22.0145L36.9611 21.218C37.5005 20.8085 38.0359 20.4121 38.5674 20.0286L39.1525 20.8396ZM35.9874 23.2415C35.477 23.6474 34.9629 24.0652 34.445 24.4951L33.8064 23.7256C34.3295 23.2914 34.849 22.8692 35.3649 22.4589L35.9874 23.2415ZM32.9276 25.7794C32.4291 26.2096 31.9272 26.6507 31.4217 27.1029L30.7549 26.3576C31.2648 25.9015 31.7712 25.4564 32.2744 25.0223L32.9276 25.7794ZM29.9581 28.4343C29.4718 28.884 28.9823 29.3438 28.4896 29.8139L27.7993 29.0903C28.2957 28.6167 28.789 28.1534 29.2792 27.7001L29.9581 28.4343ZM27.0722 31.1858C26.5983 31.6511 26.1214 32.1257 25.6416 32.6097L24.9314 31.9058C25.4143 31.4185 25.8944 30.9407 26.3716 30.4722L27.0722 31.1858ZM24.2627 34.0186C23.8012 34.4961 23.3369 34.9822 22.87 35.477L22.1427 34.7907C22.6124 34.293 23.0793 33.804 23.5437 33.3236L24.2627 34.0186ZM21.5223 36.9214C21.073 37.4082 20.6213 37.903 20.167 38.4058L19.425 37.7355C19.8815 37.2301 20.3357 36.7327 20.7874 36.2432L21.5223 36.9214ZM18.8434 39.886C18.4062 40.3798 17.9668 40.881 17.525 41.3896L16.77 40.7338C17.2138 40.2229 17.6554 39.7193 18.0947 39.2231L18.8434 39.886ZM16.2191 42.9069C15.7937 43.4057 15.3662 43.9114 14.9366 44.4238L14.1702 43.7814C14.6016 43.2668 15.031 42.759 15.4583 42.258L16.2191 42.9069ZM13.6424 45.9807C13.2285 46.4828 12.8126 46.9912 12.3947 47.506L11.6183 46.8759C12.0377 46.3591 12.4552 45.8487 12.8708 45.3446L13.6424 45.9807ZM11.1354 49.0696C10.9245 49.3333 10.7132 49.5987 10.5013 49.8657L9.71797 49.2441C9.93056 48.9762 10.1427 48.7099 10.3543 48.4452L11.1354 49.0696Z" fill="#6F764D"/>
</svg>
