<svg width="79" height="46" viewBox="0 0 79 46" fill="none" xmlns="http://www.w3.org/2000/svg">
<path fill-rule="evenodd" clip-rule="evenodd" d="M74 0C76.7614 0 79 2.23858 79 5V31C79 33.7614 76.7614 36 74 36H62.7337L53.2585 45.4001L50.7885 36H5C2.23858 36 0 33.7614 0 31V5C0 2.23858 2.23858 0 5 0H74Z" fill="black"/>
<path d="M28.6891 13.3261C28.2738 12.9057 27.7806 12.5722 27.2377 12.3447C26.6949 12.1171 26.1131 12 25.5255 12C24.9379 12 24.3561 12.1171 23.8133 12.3447C23.2704 12.5722 22.7772 12.9057 22.3619 13.3261L21.4998 14.1982L20.6377 13.3261C19.7987 12.4773 18.6607 12.0004 17.4741 12.0004C16.2875 12.0004 15.1495 12.4773 14.3104 13.3261C13.4714 14.1749 13 15.3262 13 16.5266C13 17.727 13.4714 18.8782 14.3104 19.727L15.1725 20.5991L21.4998 27L27.8271 20.5991L28.6891 19.727C29.1047 19.3068 29.4344 18.8079 29.6593 18.2587C29.8842 17.7096 30 17.121 30 16.5266C30 15.9321 29.8842 15.3435 29.6593 14.7944C29.4344 14.2453 29.1047 13.7463 28.6891 13.3261Z" fill="white"/>
</svg>
